<svg xmlns="http://www.w3.org/2000/svg" viewBox="0 0 554.29 147.67"><title>Asset 24</title><g id="Layer_2" data-name="Layer 2"><g id="Layer_1-2" data-name="Layer 1"><path d="M508.33,121H79.64c-25.28,0-46-21.2-46-47.11h0c0-25.91,20.68-47.11,46-47.11H508.33c25.28,0,46,21.2,46,47.11h0C554.29,99.79,533.61,121,508.33,121Z" fill="#313131"/><polygon points="223.34 97.45 206.77 88.82 190.27 97.58 193.36 79.16 179.94 66.17 198.41 63.41 206.61 46.63 214.94 63.35 233.44 65.97 220.11 79.05 223.34 97.45" fill="#fcb41a"/><polygon points="294.23 97.45 277.66 88.82 261.16 97.58 264.25 79.16 250.83 66.17 269.3 63.41 277.5 46.63 285.83 63.35 304.32 65.97 291 79.05 294.23 97.45" fill="#fcb41a"/><polygon points="365.12 97.45 348.55 88.82 332.05 97.58 335.14 79.16 321.72 66.17 340.19 63.41 348.39 46.63 356.72 63.35 375.22 65.97 361.89 79.05 365.12 97.45" fill="#fcb41a"/><polygon points="436.01 97.45 419.44 88.82 402.94 97.58 406.03 79.16 392.61 66.17 411.08 63.41 419.28 46.63 427.61 63.35 446.11 65.97 432.78 79.05 436.01 97.45" fill="#fcb41a"/><polygon points="490.22 46.7 490.22 88.89 473.83 97.58 476.92 79.16 463.5 66.17 481.97 63.42 490.18 46.63 490.22 46.7" fill="#fcb41a"/><polygon points="517 65.97 516.85 66.12 516.85 65.95 517 65.97" fill="#fcb41a"/><circle cx="73.84" cy="73.84" r="73.84" fill="#fcb41a"/><path d="M48.89,92.16V82.64H31.21V76.56l15.1-24.32H57.74v23.4h4.79v7H57.74v9.52Zm0-16.52V66.8c0-2.4.13-4.86.31-7.44H49c-1.3,2.58-2.34,4.92-3.69,7.44l-5.34,8.72v.12Z" fill="#313131"/><path d="M67,87.19a5.4,5.4,0,0,1,5.53-5.71c3.25,0,5.46,2.33,5.46,5.71a5.5,5.5,0,1,1-11,0Z" fill="#313131"/><path d="M109.08,59.92H93.6l-.86,6.14a17.73,17.73,0,0,1,2.58-.12,18.33,18.33,0,0,1,10.51,2.88c3,2,4.85,5.35,4.85,10,0,7.43-6.39,14-17.14,14a25.28,25.28,0,0,1-11.11-2.28l1.65-7a23,23,0,0,0,9,2c3.87,0,8-1.84,8-6.08s-3.26-6.64-11.24-6.64a35.25,35.25,0,0,0-5.41.37l2.64-20.94h22Z" fill="#313131"/><polygon points="516.85 66.12 503.67 79.05 506.9 97.45 490.34 88.83 490.31 88.84 490.22 88.89 490.22 46.7 490.31 46.9 498.5 63.35 516.85 65.95 516.85 66.12" fill="#dcdad9"/></g></g></svg>